<?xml version="1.0" standalone="no"?><svg xmlns="http://www.w3.org/2000/svg" viewBox="0 0 1440 320"><path fill="#b45309" fill-opacity="1" d="M0,96L34.3,90.7C68.6,85,137,75,206,101.3C274.3,128,343,192,411,192C480,192,549,128,617,133.3C685.7,139,754,213,823,202.7C891.4,192,960,96,1029,85.3C1097.1,75,1166,149,1234,176C1302.9,203,1371,181,1406,170.7L1440,160L1440,0L1405.7,0C1371.4,0,1303,0,1234,0C1165.7,0,1097,0,1029,0C960,0,891,0,823,0C754.3,0,686,0,617,0C548.6,0,480,0,411,0C342.9,0,274,0,206,0C137.1,0,69,0,34,0L0,0Z"></path></svg>